<svg width="134" height="50" viewBox="0 0 134 50" fill="none" xmlns="http://www.w3.org/2000/svg">
<path d="M64.1548 25.6378C64.098 25.0649 63.8542 24.6198 63.4233 24.3026C62.9924 23.9853 62.4077 23.8267 61.669 23.8267C61.1671 23.8267 60.7434 23.8977 60.3977 24.0398C60.0521 24.1771 59.7869 24.3688 59.6023 24.6151C59.4223 24.8613 59.3324 25.1406 59.3324 25.4531C59.3229 25.7135 59.3774 25.9408 59.4957 26.1349C59.6188 26.3291 59.7869 26.4972 60 26.6392C60.2131 26.7765 60.4593 26.8973 60.7386 27.0014C61.018 27.1009 61.3163 27.1861 61.6335 27.2571L62.9403 27.5696C63.5748 27.7116 64.1572 27.901 64.6875 28.1378C65.2178 28.3745 65.6771 28.6657 66.0653 29.0114C66.4536 29.357 66.7543 29.7642 66.9673 30.233C67.1851 30.7017 67.2964 31.2391 67.3011 31.8452C67.2964 32.7353 67.0691 33.5071 66.6193 34.1605C66.1742 34.8092 65.5303 35.3134 64.6875 35.6733C63.8494 36.0284 62.8385 36.206 61.6548 36.206C60.4806 36.206 59.4579 36.026 58.5866 35.6662C57.7202 35.3063 57.0431 34.7737 56.5554 34.0682C56.0724 33.358 55.8191 32.4796 55.7955 31.4332H58.7713C58.8045 31.9209 58.9441 32.3281 59.1903 32.6548C59.4413 32.9768 59.7751 33.2206 60.1918 33.3864C60.6132 33.5473 61.089 33.6278 61.6193 33.6278C62.1402 33.6278 62.5923 33.5521 62.9759 33.4006C63.3641 33.2491 63.6648 33.0384 63.8778 32.7685C64.0909 32.4986 64.1974 32.1884 64.1974 31.8381C64.1974 31.5114 64.1004 31.2367 63.9062 31.0142C63.7169 30.7917 63.4375 30.6023 63.0682 30.446C62.7036 30.2898 62.2562 30.1477 61.7259 30.0199L60.142 29.6222C58.9157 29.3239 57.9474 28.8575 57.2372 28.223C56.527 27.5885 56.1742 26.7339 56.179 25.6591C56.1742 24.7784 56.4086 24.009 56.8821 23.3509C57.3603 22.6927 58.0161 22.179 58.8494 21.8097C59.6828 21.4403 60.6297 21.2557 61.6903 21.2557C62.7699 21.2557 63.7121 21.4403 64.517 21.8097C65.3267 22.179 65.9564 22.6927 66.4062 23.3509C66.8561 24.009 67.0881 24.7713 67.1023 25.6378H64.1548ZM72.3384 29.6932V36H69.3129V21.4545H72.2532V27.0156H72.381C72.6272 26.3717 73.025 25.8674 73.5742 25.5028C74.1235 25.1335 74.8124 24.9489 75.641 24.9489C76.3986 24.9489 77.0591 25.1146 77.6225 25.446C78.1907 25.7727 78.631 26.2438 78.9435 26.8594C79.2608 27.4702 79.417 28.2017 79.4123 29.054V36H76.3867V29.5938C76.3915 28.9214 76.221 28.3982 75.8754 28.0241C75.5344 27.6501 75.0562 27.4631 74.4407 27.4631C74.0288 27.4631 73.6642 27.5507 73.3469 27.7259C73.0344 27.901 72.7882 28.1567 72.6083 28.4929C72.4331 28.8243 72.3432 29.2244 72.3384 29.6932ZM86.7223 36.2131C85.6191 36.2131 84.665 35.9787 83.8601 35.5099C83.0599 35.0365 82.442 34.3783 82.0064 33.5355C81.5708 32.688 81.353 31.7055 81.353 30.5881C81.353 29.4612 81.5708 28.4763 82.0064 27.6335C82.442 26.786 83.0599 26.1278 83.8601 25.6591C84.665 25.1856 85.6191 24.9489 86.7223 24.9489C87.8255 24.9489 88.7772 25.1856 89.5774 25.6591C90.3823 26.1278 91.0026 26.786 91.4382 27.6335C91.8738 28.4763 92.0916 29.4612 92.0916 30.5881C92.0916 31.7055 91.8738 32.688 91.4382 33.5355C91.0026 34.3783 90.3823 35.0365 89.5774 35.5099C88.7772 35.9787 87.8255 36.2131 86.7223 36.2131ZM86.7365 33.8693C87.2384 33.8693 87.6574 33.7273 87.9936 33.4432C88.3298 33.1544 88.5831 32.7614 88.7536 32.2642C88.9287 31.767 89.0163 31.2012 89.0163 30.5668C89.0163 29.9323 88.9287 29.3665 88.7536 28.8693C88.5831 28.3722 88.3298 27.9792 87.9936 27.6903C87.6574 27.4015 87.2384 27.2571 86.7365 27.2571C86.2299 27.2571 85.8037 27.4015 85.4581 27.6903C85.1172 27.9792 84.8591 28.3722 84.6839 28.8693C84.5135 29.3665 84.4283 29.9323 84.4283 30.5668C84.4283 31.2012 84.5135 31.767 84.6839 32.2642C84.8591 32.7614 85.1172 33.1544 85.4581 33.4432C85.8037 33.7273 86.2299 33.8693 86.7365 33.8693ZM94.0589 36V25.0909H96.9922V26.9943H97.1058C97.3047 26.3172 97.6385 25.8059 98.1072 25.4602C98.576 25.1098 99.1158 24.9347 99.7266 24.9347C99.8781 24.9347 100.041 24.9441 100.217 24.9631C100.392 24.982 100.546 25.008 100.678 25.0412V27.7259C100.536 27.6832 100.34 27.6454 100.089 27.6122C99.8378 27.5791 99.6082 27.5625 99.3999 27.5625C98.9548 27.5625 98.5571 27.6596 98.2067 27.8537C97.861 28.0431 97.5864 28.3082 97.3828 28.6491C97.1839 28.9901 97.0845 29.383 97.0845 29.8281V36H94.0589ZM108.592 25.0909V27.3636H102.022V25.0909H108.592ZM103.514 22.4773H106.539V32.6477C106.539 32.9271 106.582 33.1449 106.667 33.3011C106.752 33.4527 106.871 33.5592 107.022 33.6207C107.179 33.6823 107.359 33.7131 107.562 33.7131C107.704 33.7131 107.846 33.7012 107.988 33.6776C108.13 33.6491 108.239 33.6278 108.315 33.6136L108.791 35.8651C108.639 35.9124 108.426 35.9669 108.152 36.0284C107.877 36.0947 107.543 36.1349 107.15 36.1491C106.421 36.1776 105.782 36.0805 105.233 35.858C104.688 35.6354 104.264 35.2898 103.961 34.821C103.658 34.3523 103.509 33.7604 103.514 33.0455V22.4773ZM115.375 36.2131C114.271 36.2131 113.317 35.9787 112.512 35.5099C111.712 35.0365 111.094 34.3783 110.659 33.5355C110.223 32.688 110.005 31.7055 110.005 30.5881C110.005 29.4612 110.223 28.4763 110.659 27.6335C111.094 26.786 111.712 26.1278 112.512 25.6591C113.317 25.1856 114.271 24.9489 115.375 24.9489C116.478 24.9489 117.43 25.1856 118.23 25.6591C119.035 26.1278 119.655 26.786 120.091 27.6335C120.526 28.4763 120.744 29.4612 120.744 30.5881C120.744 31.7055 120.526 32.688 120.091 33.5355C119.655 34.3783 119.035 35.0365 118.23 35.5099C117.43 35.9787 116.478 36.2131 115.375 36.2131ZM115.389 33.8693C115.891 33.8693 116.31 33.7273 116.646 33.4432C116.982 33.1544 117.235 32.7614 117.406 32.2642C117.581 31.767 117.669 31.2012 117.669 30.5668C117.669 29.9323 117.581 29.3665 117.406 28.8693C117.235 28.3722 116.982 27.9792 116.646 27.6903C116.31 27.4015 115.891 27.2571 115.389 27.2571C114.882 27.2571 114.456 27.4015 114.11 27.6903C113.77 27.9792 113.511 28.3722 113.336 28.8693C113.166 29.3665 113.081 29.9323 113.081 30.5668C113.081 31.2012 113.166 31.767 113.336 32.2642C113.511 32.7614 113.77 33.1544 114.11 33.4432C114.456 33.7273 114.882 33.8693 115.389 33.8693ZM125.453 32.8608L125.46 29.2315H125.9L129.395 25.0909H132.868L128.173 30.5739H127.456L125.453 32.8608ZM122.711 36V21.4545H125.737V36H122.711ZM129.529 36L126.319 31.2486L128.336 29.1108L133.074 36H129.529Z" fill="white"/>
<path d="M14 4C8.48867 4 4 8.48867 4 14V36C4 41.5113 8.48867 46 14 46H36C41.5113 46 46 41.5113 46 36V14C46 8.48867 41.5113 4 36 4H14ZM14 6H36C40.4307 6 44 9.56933 44 14V36C44 40.4307 40.4307 44 36 44H14C9.56933 44 6 40.4307 6 36V14C6 9.56933 9.56933 6 14 6ZM21.1328 12C20.0799 12 19.1016 12.5549 18.5605 13.457L16.7246 16.5137C16.5423 16.8156 16.2182 17 15.8672 17H11C9.90694 17 9 17.9069 9 19V35C9 36.0931 9.90694 37 11 37H39C40.0931 37 41 36.0931 41 35V19C41 17.9069 40.0931 17 39 17H34.1328C33.7797 17 33.4564 16.8174 33.2754 16.5156V16.5137L31.4395 13.457C30.8984 12.5549 29.9196 12 28.8672 12H21.1328ZM12 14C11.448 14 11 14.448 11 15V16H15V15C15 14.448 14.552 14 14 14H12ZM21.1328 14H28.8672C29.2188 14 29.5436 14.1826 29.7246 14.4844V14.4863L31.5586 17.543C32.0996 18.4451 33.0799 19 34.1328 19H39V35H11V19H15.8672C16.9196 19 17.8976 18.446 18.4395 17.5449L18.4414 17.543L20.2754 14.4863V14.4844C20.4563 14.1826 20.7797 14 21.1328 14ZM25 20C21.1458 20 18 23.1459 18 27C18 30.8541 21.1458 34 25 34C28.8542 34 32 30.8541 32 27C32 23.1459 28.8542 20 25 20ZM34 20C33.7348 20 33.4804 20.1054 33.2929 20.2929C33.1054 20.4804 33 20.7348 33 21C33 21.2652 33.1054 21.5196 33.2929 21.7071C33.4804 21.8946 33.7348 22 34 22C34.2652 22 34.5196 21.8946 34.7071 21.7071C34.8946 21.5196 35 21.2652 35 21C35 20.7348 34.8946 20.4804 34.7071 20.2929C34.5196 20.1054 34.2652 20 34 20ZM25 22C27.7733 22 30 24.2267 30 27C30 29.7733 27.7733 32 25 32C22.2267 32 20 29.7733 20 27C20 24.2267 22.2267 22 25 22Z" fill="#75CEB2"/>
</svg>
