<svg width="24" height="24" viewBox="0 0 24 24" fill="none" xmlns="http://www.w3.org/2000/svg">
<g clip-path="url(#clip0_3_140)">
<path d="M20.3809 1.32731V8.26394C20.3809 8.63067 20.1016 8.92863 19.7578 8.92863C19.6074 8.92863 19.4688 8.87237 19.3613 8.77652L17.4512 7.39295L15.373 8.82028C15.2793 8.88488 15.171 8.92125 15.0594 8.92554C14.9479 8.92984 14.8374 8.9019 14.7395 8.84469C14.6417 8.78747 14.5601 8.7031 14.5035 8.60051C14.4469 8.49791 14.4174 8.3809 14.418 8.26185H14.416V1.32731H12.9941C12.8927 1.3274 12.7942 1.36412 12.7148 1.4315C12.6387 1.49818 12.582 1.58778 12.5586 1.69196L12.5527 1.72322V20.8495C12.9238 20.6077 13.3301 20.4765 13.7891 20.4723C13.8066 20.4702 13.8242 20.4702 13.8418 20.4702H22.3086C22.4297 20.4702 22.541 20.416 22.623 20.3306C22.7051 20.2431 22.7539 20.1243 22.7539 19.9951V1.80448C22.7539 1.67529 22.7031 1.55652 22.623 1.46901C22.541 1.38149 22.4297 1.3294 22.3086 1.3294H20.3809V1.32731ZM13.7891 21.7975C13.5586 21.8017 13.3535 21.8767 13.1641 22.008C12.9512 22.158 12.75 22.381 12.5547 22.6706V23.3374C12.5547 23.7041 12.2754 24.0021 11.9316 24.0021C11.5879 24.0021 11.3086 23.7041 11.3086 23.3374V22.556C11.2402 22.4685 11.1777 22.3851 11.1211 22.308C10.8477 21.9434 10.7422 21.8017 10.1699 21.8017H1.69141C1.46932 21.8017 1.24942 21.755 1.0443 21.6642C0.839185 21.5734 0.652888 21.4402 0.496094 21.2724C0.178731 20.9335 0.000320818 20.4742 0 19.9951L0 1.80448C0 1.30856 0.189453 0.8564 0.496094 0.529259C0.652778 0.361311 0.839054 0.228085 1.0442 0.137252C1.24934 0.0464192 1.4693 -0.000226331 1.69141 8.25684e-07H10.9063C11.2988 8.25684e-07 11.6621 0.145859 11.9492 0.389652C12.2463 0.137644 12.6146 0.000311991 12.9941 8.25684e-07H22.3086C22.7734 8.25684e-07 23.1973 0.202119 23.5039 0.529259C23.6613 0.696419 23.7862 0.895147 23.8714 1.114C23.9565 1.33286 24.0002 1.56752 24 1.80448V19.9951C24 20.4911 23.8105 20.9432 23.5039 21.2704C23.3472 21.4383 23.1609 21.5715 22.9558 21.6624C22.7507 21.7532 22.5307 21.7998 22.3086 21.7996H13.8418C13.8242 21.7996 13.8066 21.7975 13.7891 21.7975ZM11.3086 1.59611C11.2722 1.51535 11.215 1.44725 11.1438 1.39968C11.0726 1.35211 10.9903 1.32702 10.9063 1.32731H1.69141C1.57031 1.32731 1.45898 1.38149 1.37695 1.46692C1.29492 1.55444 1.24414 1.67321 1.24414 1.80448V19.9951C1.24414 20.1243 1.29492 20.2431 1.375 20.3306C1.45703 20.4181 1.56836 20.4702 1.68945 20.4702H10.168C10.7109 20.4702 11.0488 20.5306 11.3066 20.6703V1.59611H11.3086ZM19.1348 1.35857H15.6602V7.04914L17.123 6.0448V6.04688C17.3262 5.90936 17.5938 5.90311 17.8047 6.05522L19.1348 7.01789V1.35857Z" fill="#75CEB2"/>
</g>
<defs>
<clipPath id="clip0_3_140">
<rect width="24" height="24" fill="white"/>
</clipPath>
</defs>
</svg>
