<svg width="20" height="20" viewBox="0 0 20 20" fill="none" xmlns="http://www.w3.org/2000/svg">
<g clip-path="url(#clip0_3_184)">
<path fill-rule="evenodd" clip-rule="evenodd" d="M15.9433 0.361328L19.6345 4.01042C20.1218 4.49219 20.1218 5.27995 19.6345 5.76172L17.593 7.77995L12.1303 2.37956L14.1718 0.361328C14.6592 -0.120443 15.456 -0.120443 15.9433 0.361328ZM11.5541 8.49447V8.49609C11.7056 8.64583 11.7813 8.8444 11.7813 9.03971C11.7813 9.23503 11.7056 9.43197 11.5541 9.58333V9.58496L11.5525 9.58659L6.60021 14.484H6.59856C6.55576 14.5264 6.50801 14.5622 6.46027 14.5931H6.45862C6.40923 14.624 6.3582 14.6484 6.30551 14.6663C6.03222 14.7607 5.71447 14.6989 5.49715 14.484H5.4955V14.4824C5.4527 14.4401 5.41648 14.3929 5.3852 14.3457V14.3441C5.35391 14.2952 5.32922 14.2448 5.31111 14.1927C5.21562 13.9225 5.27818 13.6084 5.49386 13.3936V13.3919L10.4478 8.49447H10.4494C10.6009 8.34473 10.8017 8.26986 10.9993 8.26986C11.1969 8.26986 11.3961 8.34473 11.5492 8.49447H11.5541ZM7.4876 17.7588C6.00917 18.2113 4.53238 18.6621 3.05395 19.1146C-0.419875 20.1774 -0.405058 20.8854 0.543246 17.5781L2.0365 12.3698L2.03156 12.3649L11.0964 3.40169L16.5591 8.80208L7.49254 17.7653L7.4876 17.7588ZM2.96834 13.291L6.55576 16.8376C5.58441 17.1338 4.61305 17.43 3.64334 17.7246C1.36149 18.4196 1.37137 18.8851 1.99204 16.7122L2.96834 13.291Z" fill="#75CEB2"/>
</g>
<defs>
<clipPath id="clip0_3_184">
<rect width="20" height="20" fill="white"/>
</clipPath>
</defs>
</svg>
