<svg width="24" height="24" viewBox="0 0 24 24" fill="none" xmlns="http://www.w3.org/2000/svg">
<g clip-path="url(#clip0_3_142)">
<path d="M3.51468 3.51465C5.85786 1.17168 8.92898 0 11.9999 0C15.0708 0 18.1421 1.17168 20.4853 3.51465C22.8283 5.85781 23.9998 8.92891 23.9998 11.9998C23.9998 15.0711 22.8283 18.142 20.4853 20.4852C18.1421 22.8281 15.0708 23.9998 11.9999 23.9998C8.92898 23.9998 5.85767 22.8281 3.51468 20.4852C1.17149 18.1422 0 15.0711 0 11.9998C0 8.92891 1.17149 5.85781 3.51468 3.51465ZM11.261 6.09023C11.261 5.73086 11.5524 5.43945 11.912 5.43945C12.2716 5.43945 12.563 5.73086 12.563 6.09023V11.4385H17.9113C18.2707 11.4385 18.5621 11.7299 18.5621 12.0893C18.5621 12.4488 18.2707 12.7402 17.9113 12.7402H12.5628V18.0885C12.5628 18.4479 12.2714 18.7393 11.9118 18.7393C11.5522 18.7393 11.2608 18.4479 11.2608 18.0885V12.74H5.91274C5.55337 12.74 5.26176 12.4486 5.26176 12.0891C5.26176 11.7297 5.55317 11.4383 5.91274 11.4383H11.261V6.09023ZM11.9999 1.30176C9.26199 1.30176 6.52427 2.34629 4.43519 4.43535C2.34631 6.52422 1.30177 9.26211 1.30177 11.9998C1.30177 14.7377 2.34631 17.4756 4.43519 19.5645C6.52427 21.6535 9.26199 22.698 11.9999 22.698C14.7378 22.698 17.4755 21.6535 19.5646 19.5645C21.6535 17.4756 22.6982 14.7375 22.6982 11.9998C22.6982 9.26211 21.6535 6.52422 19.5646 4.43535C17.4757 2.34629 14.7378 1.30176 11.9999 1.30176Z" fill="#75CEB2"/>
</g>
<defs>
<clipPath id="clip0_3_142">
<rect width="24" height="24" fill="white"/>
</clipPath>
</defs>
</svg>
