<svg width="24" height="25" viewBox="0 0 24 25" fill="none" xmlns="http://www.w3.org/2000/svg">
<path d="M11.9674 0.50095C11.7542 0.507672 11.5489 0.577161 11.3815 0.699264L1.90625 7.58976C0.703651 8.4646 0 9.8014 0 11.2147V22.9621C0 23.8012 0.757604 24.5005 1.66667 24.5005H8.33333C9.2424 24.5005 10 23.8012 10 22.9621V16.8083C10 16.6268 10.1366 16.5007 10.3333 16.5007H13.6667C13.8634 16.5007 14 16.6268 14 16.8083V22.9621C14 23.8012 14.7576 24.5005 15.6667 24.5005H22.3333C23.2424 24.5005 24 23.8012 24 22.9621V11.2147C24 9.8014 23.2963 8.4646 22.0938 7.58976L12.6185 0.699264C12.4336 0.56442 12.203 0.494186 11.9674 0.50095ZM12 2.59947L20.8568 9.04045C21.5795 9.56621 22 10.3659 22 11.2147V22.6544H16V16.8083C16 15.6299 14.9433 14.6545 13.6667 14.6545H10.3333C9.0567 14.6545 8 15.6299 8 16.8083V22.6544H2V11.2147C2 10.3659 2.42049 9.56621 3.14323 9.04045L12 2.59947Z" fill="white"/>
</svg>
