<svg width="20" height="20" viewBox="0 0 20 20" fill="none" xmlns="http://www.w3.org/2000/svg">
<g clip-path="url(#clip0_3_163)">
<path d="M10.6543 3.57215C10.5436 3.70357 10.4329 3.83682 10.2962 3.99562L9.92025 4.43553L9.52962 4.01023C9.41406 3.88428 9.29687 3.75468 9.18294 3.62874C7.97526 2.29625 7.06543 1.29233 5.19206 1.26495C5.11881 1.26312 5.04069 1.26495 4.95931 1.2686C3.91113 1.31058 2.94434 1.74318 2.23796 2.48244C1.54134 3.21256 1.09701 4.24752 1.08236 5.50699C1.08073 5.58548 1.08236 5.66762 1.08561 5.75706C1.19792 9.27444 4.19922 12.3428 6.68783 14.8855C7.16797 15.3765 7.62858 15.8474 8.06966 16.3238L9.90234 18.3043L12.2054 15.7415C12.5765 15.329 12.9964 14.8782 13.4456 14.3963C14.209 13.5749 15.0586 12.6641 15.8496 11.7459C16.4176 11.087 16.9564 10.4244 17.4137 9.78736C17.863 9.1631 18.2308 8.56987 18.4668 8.04053C18.8542 7.17168 18.9762 6.30283 18.8932 5.49056C18.8118 4.68925 18.5303 3.94087 18.1087 3.302C17.6807 2.65402 17.111 2.11737 16.4583 1.75048C15.7064 1.33066 14.8454 1.1317 13.9648 1.24487C12.4463 1.44201 11.6374 2.40395 10.6543 3.57215ZM9.89095 2.7106C11.014 1.37629 11.9466 0.282929 13.8411 0.0401621C14.9349 -0.100387 16.0059 0.144205 16.9385 0.669897C17.7441 1.12258 18.4473 1.78334 18.9746 2.581C19.5068 3.38779 19.8633 4.33513 19.9674 5.35366C20.0732 6.38679 19.9202 7.48746 19.4303 8.58265C19.1536 9.20143 18.7435 9.86584 18.2536 10.5467C17.7734 11.2148 17.2135 11.9047 16.626 12.5856C15.8203 13.522 14.9642 14.4419 14.1927 15.2706C13.7419 15.7543 13.3203 16.207 12.9655 16.6013L10.2865 19.582L9.91048 20L9.52962 19.5893L7.31608 17.1981C6.91081 16.7619 6.44206 16.2818 5.9554 15.7835C3.31706 13.0839 0.131836 9.82934 0.00325521 5.79904C0 5.70047 0 5.59825 0 5.49238C0.0195312 3.87515 0.595703 2.53902 1.49902 1.59351C2.39421 0.657119 3.61003 0.109524 4.91862 0.05659C5.00814 0.0529394 5.10254 0.051114 5.20182 0.0529394C7.48698 0.0876204 8.5319 1.21019 9.89095 2.7106Z" fill="#75CEB2"/>
</g>
<defs>
<clipPath id="clip0_3_163">
<rect width="20" height="20" fill="white"/>
</clipPath>
</defs>
</svg>
