<svg width="24" height="24" viewBox="0 0 24 24" fill="none" xmlns="http://www.w3.org/2000/svg">
<path d="M17.7857 13.4099H10.792C10.2912 13.3963 9.81708 13.2416 9.46936 12.9785C9.12164 12.7153 8.92737 12.3641 8.92737 11.9987C8.92737 11.6333 9.12164 11.2821 9.46936 11.0189C9.81708 10.7558 10.2912 10.6012 10.792 10.5876H17.7857L15.5143 8.73993C15.1753 8.4623 14.9996 8.0986 15.0252 7.72734C15.0507 7.35608 15.2755 7.00704 15.6509 6.75555C15.8355 6.63175 16.0521 6.53596 16.288 6.47378C16.5239 6.41159 16.7744 6.38424 17.0249 6.39333C17.2754 6.40242 17.521 6.44776 17.7473 6.52671C17.9735 6.60567 18.176 6.71665 18.3429 6.85321L23.4911 11.0427C23.8146 11.3019 23.9952 11.6392 23.9982 11.9896C24.0012 12.3401 23.8263 12.679 23.5071 12.9411L18.3429 17.1423C18.1764 17.2792 17.9741 17.3906 17.7479 17.4698C17.5218 17.5491 17.2762 17.5947 17.0255 17.604C16.7749 17.6133 16.5243 17.586 16.2882 17.5238C16.0522 17.4617 15.8355 17.3658 15.6509 17.2419C15.2755 16.9904 15.0507 16.6414 15.0252 16.2701C14.9996 15.8988 15.1753 15.5351 15.5143 15.2575L17.7857 13.4099ZM11.5018 21.2048C11.751 21.2411 11.988 21.3128 12.1992 21.4159C12.4104 21.5189 12.5917 21.6513 12.7327 21.8055C12.8737 21.9597 12.9717 22.1326 13.0211 22.3143C13.0705 22.4961 13.0703 22.6832 13.0205 22.8649C12.9708 23.0466 12.8724 23.2194 12.731 23.3734C12.5897 23.5274 12.4081 23.6596 12.1967 23.7625C11.9853 23.8653 11.7481 23.9368 11.4988 23.9728C11.2495 24.0088 10.993 24.0086 10.7437 23.9724L9.84107 23.8395C3.43929 22.9138 0 22.3884 0 15.6638V7.93524C0 1.49384 3.69107 0.989929 9.80357 0.157898L10.7598 0.0250854C11.2631 -0.0451037 11.7841 0.0333736 12.208 0.243253C12.632 0.453133 12.9243 0.777222 13.0205 1.14423C13.1168 1.51123 13.0092 1.89108 12.7213 2.20023C12.4335 2.50937 11.989 2.72247 11.4857 2.79266L10.5134 2.92938C6.37232 3.49384 3.87054 3.83368 3.87054 7.93915V15.6638C3.87054 20.0798 6.21964 20.4411 10.5937 21.0739L11.5018 21.2048Z" fill="#75CEB2"/>
</svg>
