<svg width="24" height="24" viewBox="0 0 24 24" fill="none" xmlns="http://www.w3.org/2000/svg">
<g clip-path="url(#clip0_3_146)">
<path fill-rule="evenodd" clip-rule="evenodd" d="M0 24V20.2576C1.39062 19.4609 6.83203 17.704 7.17578 15.4672C7.33008 14.4593 6.97656 13.9742 6.58984 13.18L5.3457 10.629C5.05469 10.0283 4.83594 9.81464 4.8418 9.07571C4.8457 8.65849 4.85156 8.24882 4.89844 7.84919C4.95703 7.33898 5.00586 7.32139 5.21484 6.91171C5.35547 6.63524 5.33789 6.5523 5.33789 5.91643V4.33301C5.33789 2.50329 5.86133 1.3572 6.74414 0.70876C8.03711 -0.241287 10.6582 -0.241287 11.9434 0.728867C12.8105 1.38234 13.3223 2.5234 13.3223 4.33301V5.91643C13.3223 6.62771 13.3027 6.64781 13.5039 7.01979C13.6562 7.3038 13.6895 7.33647 13.7422 7.68331C13.8086 8.13823 13.8145 8.60069 13.8184 9.07571C13.8262 9.81464 13.6074 10.0283 13.3164 10.629L14.2188 11.3553L14.3691 11.0738C14.6699 10.5108 14.877 10.1213 14.8848 9.20389C14.8887 9.15865 14.8887 9.1109 14.8887 9.06314H14.8848C14.8828 8.78667 14.8789 8.51523 14.8691 8.29908C14.8555 8.00753 14.834 7.71599 14.791 7.42695C14.7109 6.88909 14.6523 6.74583 14.4766 6.41658C14.4609 6.3814 14.4434 6.34872 14.4258 6.31354L14.4023 6.27081L14.3867 6.24065L14.3848 6.23562H14.3828C14.3828 6.22808 14.3906 6.21803 14.3906 6.08985V5.91643H14.3945V4.33301C14.3945 3.8027 14.3555 3.31259 14.2832 2.85768C16.7793 0.673573 20.2266 2.83254 20.9355 9.34212C21.6172 15.6104 24.5391 15.3867 19.9785 15.3867H18.1582C18.1523 16.9827 17.957 17.7996 19.2441 18.6943C20.5293 19.5891 24 20.049 24 22.3161V23.7688C24 23.8844 23.9258 23.9799 23.834 23.9799H19.2695V19.7876C19.2695 18.3424 17.7129 18.071 16.8926 17.7443C16.1426 17.4477 15.2578 17.0958 14.4844 16.7238C14.502 16.3318 14.4766 15.8944 14.4746 15.3867H12.6016C12.5703 15.3239 12.5488 15.2636 12.541 15.2033C12.4961 14.9092 12.6094 14.6503 12.7676 14.3336C12.7852 14.3035 12.8047 14.2708 12.8203 14.2356L12.7871 14.208L12.8203 14.2331L12.9414 13.9893L12.9844 13.9089L12.9824 13.9064L14.1797 11.4483L14.2285 11.3578L13.3223 10.6264L12.0781 13.1775C11.6914 13.9717 11.3379 14.4593 11.4922 15.4647C11.834 17.7015 16.8125 18.9607 18.2031 19.7575V23.995L0 24Z" fill="#75CEB2"/>
</g>
<defs>
<clipPath id="clip0_3_146">
<rect width="24" height="24" fill="white"/>
</clipPath>
</defs>
</svg>
