<svg width="20" height="20" viewBox="0 0 20 20" fill="none" xmlns="http://www.w3.org/2000/svg">
<g clip-path="url(#clip0_3_160)">
<path d="M16.984 1.1061V6.88661C16.984 7.19222 16.7513 7.44053 16.4648 7.44053C16.3395 7.44053 16.224 7.39365 16.1344 7.31377L14.5426 6.16079L12.8109 7.35024C12.7328 7.40407 12.6425 7.43437 12.5495 7.43795C12.4566 7.44153 12.3645 7.41825 12.2829 7.37057C12.2014 7.32289 12.1334 7.25258 12.0863 7.16709C12.0391 7.08159 12.0145 6.98408 12.015 6.88488H12.0133V1.1061H10.8285C10.7439 1.10617 10.6619 1.13677 10.5957 1.19292C10.5322 1.24848 10.485 1.32315 10.4655 1.40997L10.4606 1.43601V17.3745C10.7699 17.1731 11.1084 17.0637 11.4909 17.0603C11.5055 17.0585 11.5202 17.0585 11.5348 17.0585H18.5905C18.6914 17.0585 18.7842 17.0134 18.8525 16.9422C18.9209 16.8692 18.9616 16.7703 18.9616 16.6626V1.50373C18.9616 1.39608 18.9193 1.2971 18.8525 1.22417C18.7842 1.15124 18.6914 1.10783 18.5905 1.10783H16.984V1.1061ZM11.4909 18.1646C11.2988 18.1681 11.1279 18.2306 10.9701 18.34C10.7926 18.465 10.625 18.6508 10.4622 18.8922V19.4478C10.4622 19.7534 10.2295 20.0017 9.94303 20.0017C9.65658 20.0017 9.42383 19.7534 9.42383 19.4478V18.7967C9.36686 18.7237 9.31478 18.6543 9.26758 18.59C9.03971 18.2862 8.95182 18.1681 8.47494 18.1681H1.40951C1.22444 18.1681 1.04118 18.1292 0.870252 18.0535C0.69932 17.9778 0.544073 17.8669 0.413411 17.727C0.148942 17.4446 0.000267348 17.0618 0 16.6626L0 1.50373C0 1.09047 0.157878 0.713666 0.413411 0.44105C0.543982 0.301092 0.699212 0.190071 0.870164 0.114377C1.04112 0.0386827 1.22441 -0.000188609 1.40951 6.8807e-07H9.08854C9.41569 6.8807e-07 9.71842 0.12155 9.95768 0.32471C10.2053 0.114704 10.5122 0.000259993 10.8285 6.8807e-07H18.5905C18.9779 6.8807e-07 19.3311 0.168433 19.5866 0.44105C19.7178 0.580349 19.8218 0.745956 19.8928 0.928337C19.9637 1.11072 20.0002 1.30627 20 1.50373V16.6626C20 17.0759 19.8421 17.4527 19.5866 17.7253C19.456 17.8653 19.3008 17.9763 19.1298 18.052C18.9589 18.1277 18.7756 18.1665 18.5905 18.1664H11.5348C11.5202 18.1664 11.5055 18.1646 11.4909 18.1646ZM9.42383 1.33009C9.39347 1.26279 9.34586 1.20604 9.28653 1.1664C9.22719 1.12676 9.15855 1.10585 9.08854 1.1061H1.40951C1.30859 1.1061 1.21582 1.15124 1.14746 1.22244C1.0791 1.29536 1.03678 1.39434 1.03678 1.50373V16.6626C1.03678 16.7703 1.0791 16.8692 1.14583 16.9422C1.21419 17.0151 1.30697 17.0585 1.40788 17.0585H8.47331C8.92578 17.0585 9.20736 17.1089 9.4222 17.2252V1.33009H9.42383ZM15.9456 1.13214H13.0501V5.87428L14.2692 5.03733V5.03907C14.4385 4.92447 14.6615 4.91926 14.8372 5.04602L15.9456 5.84824V1.13214Z" fill="#75CEB2"/>
</g>
<defs>
<clipPath id="clip0_3_160">
<rect width="20" height="20" fill="white"/>
</clipPath>
</defs>
</svg>
