<svg width="24" height="24" viewBox="0 0 24 24" fill="none" xmlns="http://www.w3.org/2000/svg">
<g clip-path="url(#clip0_3_219)">
<path d="M9.67767 0C12.3501 0 14.7692 1.05625 16.5205 2.76406C18.2718 4.47188 19.3549 6.83105 19.3549 9.43711C19.3549 11.9389 18.3567 14.2127 16.7278 15.9016C16.7574 15.9229 16.7861 15.9465 16.8131 15.9727L23.7801 22.7572C24.0719 23.0402 24.0735 23.5008 23.7829 23.7855C23.4927 24.0703 23.0204 24.0715 22.7286 23.7885L15.7616 17.0039C15.7173 16.9609 15.6799 16.9141 15.6488 16.8643C14.0039 18.1234 11.9307 18.8744 9.67747 18.8744C7.00504 18.8744 4.58557 17.8182 2.83426 16.1104C1.08315 14.4025 0 12.0432 0 9.43711C0 6.83105 1.08315 4.47188 2.83446 2.76406C4.58577 1.05645 7.00524 0 9.67767 0ZM15.4385 3.81934C13.9642 2.38164 11.9275 1.49238 9.67767 1.49238C7.42785 1.49238 5.39093 2.38164 3.91661 3.81934C2.4423 5.25703 1.53039 7.24316 1.53039 9.43711C1.53039 11.6311 2.4423 13.6174 3.91661 15.0551C5.39073 16.4928 7.42765 17.382 9.67767 17.382C11.9275 17.382 13.9642 16.4928 15.4385 15.0551C16.9128 13.6176 17.8247 11.6313 17.8247 9.43711C17.8247 7.24316 16.9128 5.25703 15.4385 3.81934Z" fill="#7878A3"/>
</g>
<defs>
<clipPath id="clip0_3_219">
<rect width="24" height="24" fill="white"/>
</clipPath>
</defs>
</svg>
