<svg width="24" height="24" viewBox="0 0 24 24" fill="none" xmlns="http://www.w3.org/2000/svg">
<g clip-path="url(#clip0_3_138)">
<path fill-rule="evenodd" clip-rule="evenodd" d="M17.0488 4.4387C17.4873 4.4387 17.9159 4.61374 18.2804 4.94169C18.645 5.26963 18.9291 5.73576 19.0969 6.28111C19.2647 6.82647 19.3086 7.42656 19.223 8.00551C19.1375 8.58445 18.9264 9.11625 18.6163 9.53365C18.3063 9.95104 17.9113 10.2353 17.4813 10.3505C17.0513 10.4656 16.6056 10.4065 16.2005 10.1806C15.7954 9.95472 15.4492 9.57218 15.2056 9.08138C14.962 8.59057 14.832 8.01354 14.832 7.42325C14.832 7.03131 14.8894 6.64321 15.0008 6.28111C15.1122 5.91901 15.2755 5.58999 15.4813 5.31285C15.6872 5.03571 15.9315 4.81587 16.2005 4.66588C16.4695 4.5159 16.7577 4.4387 17.0488 4.4387ZM22.3867 24H1.61328C1.1856 23.9975 0.776106 23.7668 0.474609 23.3584C0.324501 23.1574 0.205313 22.9186 0.123871 22.6555C0.0424302 22.3925 0.000336106 22.1104 0 21.8254L0 2.17202C7.27257e-05 1.596 0.170091 1.04361 0.472656 0.636354C0.775149 0.228999 1.18544 9.79132e-05 1.61328 0L22.3867 0C22.8142 0.00149181 23.2237 0.231308 23.5254 0.638983C23.828 1.04624 23.998 1.59863 23.998 2.17465V21.8254C23.998 22.1102 23.9562 22.3922 23.8751 22.6552C23.794 22.9183 23.6751 23.1572 23.5254 23.3584C23.2239 23.7668 22.8144 23.9975 22.3867 24ZM20.9512 21.5203L17.1094 13.2688C17.0299 13.0987 16.9196 12.9586 16.789 12.8615C16.6583 12.7644 16.5115 12.7135 16.3623 12.7135C16.2131 12.7135 16.0663 12.7644 15.9356 12.8615C15.805 12.9586 15.6947 13.0987 15.6152 13.2688L13.8008 17.1947L15.7754 21.5203H14.9648L9.58008 9.95026C9.08399 9.05884 8.28906 9.12721 7.8457 9.95026L2.57227 21.5203H1.83984V2.47705H22.1523V21.5203H20.9512Z" fill="#75CEB2"/>
</g>
<defs>
<clipPath id="clip0_3_138">
<rect width="24" height="24" fill="white"/>
</clipPath>
</defs>
</svg>
